<svg width="1324" height="1324" viewBox="0 0 1324 1324" fill="none" xmlns="http://www.w3.org/2000/svg">
<g opacity="0.02">
<path d="M975.931 675.078H1020.55C1035.26 675.078 1046.42 670.926 1053.76 662.754C1061.11 654.582 1064.76 642.52 1064.76 626.777C1064.76 611.034 1061.13 599.236 1053.99 590.819C1046.85 582.403 1035.58 578.119 1020.47 578.119H975.931C974.019 578.124 972.187 578.886 970.835 580.238C969.483 581.589 968.722 583.421 968.717 585.333V667.845C968.717 669.76 969.476 671.597 970.829 672.953C972.181 674.309 974.016 675.073 975.931 675.078Z" fill="white"/>
<path d="M337.047 578.119H292.428C290.516 578.124 288.684 578.886 287.332 580.238C285.98 581.589 285.219 583.421 285.214 585.333V667.845C285.214 669.76 285.973 671.597 287.326 672.953C288.678 674.309 290.513 675.073 292.428 675.078H337.047C351.738 675.078 362.916 670.926 370.262 662.754C377.608 654.582 381.346 642.445 381.346 626.777C381.346 611.109 377.72 599.236 370.562 590.819C363.405 582.403 352.151 578.119 337.047 578.119Z" fill="white"/>
<path d="M744.251 717.405H816.58C817.045 717.409 817.504 717.303 817.919 717.093C818.334 716.884 818.693 716.579 818.966 716.202C819.242 715.83 819.428 715.399 819.509 714.942C819.591 714.486 819.565 714.017 819.436 713.572L783.271 594.689C783.075 594.097 782.697 593.581 782.191 593.215C781.685 592.85 781.077 592.653 780.453 592.653C779.829 592.653 779.221 592.85 778.715 593.215C778.209 593.581 777.831 594.097 777.635 594.689L741.452 713.572C741.331 714.011 741.312 714.471 741.397 714.918C741.483 715.365 741.67 715.787 741.944 716.15C742.218 716.513 742.572 716.808 742.979 717.013C743.385 717.217 743.833 717.326 744.288 717.33L744.251 717.405Z" fill="white"/>
<path d="M1300.7 576.578L1276.44 534.571C1264.17 513.338 1257.69 489.249 1257.66 464.721V416.195C1257.61 386.272 1249.71 356.885 1234.75 330.972C1219.78 305.06 1198.28 283.528 1172.38 268.53L1130.51 244.239C1109.27 231.98 1091.64 214.351 1079.37 193.12L1055.12 151.094C1040.11 125.201 1018.58 103.7 992.663 88.7389C966.747 73.778 937.358 65.8816 907.433 65.8392H858.869C834.342 65.8036 810.255 59.3251 789.02 47.0524L747.012 22.7798C721.075 7.85499 691.674 0 661.748 0C631.823 0 602.422 7.85499 576.484 22.7798L534.458 47.0524C513.223 59.3267 489.136 65.8054 464.609 65.8392H416.101C386.177 65.8816 356.787 73.778 330.871 88.7389C304.955 103.7 283.419 125.201 268.418 151.094L244.164 193.139C231.9 214.36 214.271 231.983 193.045 244.239L151.038 268.512C125.144 283.509 103.641 305.041 88.6766 330.954C73.7124 356.866 65.8117 386.253 65.7641 416.176V464.703C65.7346 489.23 59.2557 513.319 46.9772 534.552L22.7798 576.578C7.85499 602.516 0 631.917 0 661.842C0 691.768 7.85499 721.169 22.7798 747.106L47.0336 789.057C59.3121 810.291 65.791 834.379 65.8204 858.907V907.415C65.8742 937.339 73.7774 966.726 88.7408 992.641C103.704 1018.56 125.204 1040.09 151.094 1055.1L193.045 1079.43C214.28 1091.69 231.916 1109.32 244.183 1130.55L268.437 1172.57C283.666 1198.87 305.63 1220.63 332.068 1235.62C335.675 1237.67 339.357 1239.57 343.095 1241.26C365.884 1252.09 390.795 1257.71 416.026 1257.73H464.534C489.061 1257.77 513.148 1264.25 534.383 1276.52L576.484 1300.81C589.715 1308.44 603.914 1314.25 618.698 1318.08C622.719 1319.13 626.777 1319.95 630.853 1320.76C640.771 1322.58 650.83 1323.52 660.912 1323.56H661.683H664.087C674.177 1323.42 684.235 1322.39 694.146 1320.5C698.204 1319.71 702.243 1318.79 706.264 1317.7C720.516 1313.85 734.208 1308.17 746.994 1300.79L789.001 1276.52C810.237 1264.25 834.324 1257.77 858.851 1257.73H907.358C933.116 1257.71 958.534 1251.85 981.698 1240.58C985.455 1238.7 989.212 1236.82 992.707 1234.76C1018.57 1219.8 1040.06 1198.33 1055.04 1172.48L1079.3 1130.45C1091.6 1109.25 1109.26 1091.65 1130.51 1079.43L1172.52 1055.17C1198.41 1040.16 1219.91 1018.61 1234.87 992.681C1249.82 966.75 1257.71 937.348 1257.73 907.415V858.963C1257.76 834.436 1264.24 810.347 1276.52 789.114L1300.77 747.106C1315.69 721.162 1323.53 691.758 1323.52 661.832C1323.5 631.907 1315.63 602.51 1300.7 576.578V576.578ZM1226.9 907.415C1226.86 931.927 1220.39 955.999 1208.13 977.227C1195.88 998.455 1178.26 1016.09 1157.05 1028.38L1115.03 1052.64C1089.12 1067.62 1067.6 1089.15 1052.62 1115.07L1028.36 1157.07C1016.07 1178.28 998.431 1195.9 977.2 1208.16C955.969 1220.41 931.892 1226.89 907.377 1226.92H858.869C828.914 1226.95 799.493 1234.85 773.558 1249.84L731.532 1274.1C710.282 1286.32 686.197 1292.75 661.683 1292.75C637.168 1292.75 613.083 1286.32 591.833 1274.1L549.826 1249.84C523.894 1234.89 494.487 1227.01 464.552 1227H416.101C391.588 1226.96 367.513 1220.49 346.284 1208.24C325.056 1195.98 307.417 1178.36 295.133 1157.15L270.86 1115.14C255.889 1089.22 234.366 1067.69 208.45 1052.71L166.424 1028.46C145.206 1016.16 127.588 998.51 115.334 977.268C103.079 956.026 96.6168 931.938 96.5933 907.415V858.963C96.5772 829.035 88.6993 799.635 73.7485 773.709L49.4759 731.682C37.2531 710.436 30.8202 686.354 30.8202 661.842C30.8202 637.331 37.2531 613.249 49.4759 592.002L73.7485 549.976C88.6993 524.049 96.5772 494.65 96.5933 464.721V416.195C96.63 391.684 103.098 367.612 115.353 346.384C127.607 325.157 145.217 307.516 166.424 295.227L208.45 270.973C234.366 255.994 255.889 234.465 270.86 208.544L295.133 166.537C307.42 145.326 325.059 127.712 346.287 115.455C367.515 103.197 391.588 96.7258 416.101 96.6872H464.609C494.544 96.6744 523.95 88.7965 549.882 73.8424L591.89 49.5886C613.139 37.366 637.225 30.9333 661.739 30.9333C686.253 30.9333 710.339 37.366 731.588 49.5886L773.558 73.8424C799.493 88.7915 828.897 96.6691 858.832 96.6872H907.339C931.854 96.7282 955.929 103.2 977.159 115.457C998.39 127.714 1016.03 145.327 1028.33 166.537L1052.62 208.544C1067.6 234.458 1089.12 255.985 1115.03 270.973L1157.05 295.227C1178.26 307.516 1195.88 325.155 1208.13 346.383C1220.39 367.61 1226.86 391.683 1226.9 416.195V464.721C1226.91 494.651 1234.79 524.053 1249.75 549.976L1274 592.002C1286.22 613.249 1292.66 637.331 1292.66 661.842C1292.66 686.354 1286.22 710.436 1274 731.682L1249.75 773.709C1234.79 799.632 1226.91 829.033 1226.9 858.963V907.415Z" fill="#6536FC"/>
<path d="M377.662 698.656C388.817 692.478 397.817 683.039 403.456 671.602C409.506 659.786 412.587 644.7 412.587 626.777C412.587 608.854 409.506 593.75 403.456 581.689C397.865 570.183 388.874 560.674 377.699 554.448C366.709 548.398 353.54 545.317 338.604 545.317H279.05C272.491 545.327 266.203 547.937 261.565 552.575C256.927 557.213 254.317 563.501 254.307 570.06V801.814C254.215 804.133 254.874 806.419 256.186 808.333C256.815 809.199 257.648 809.896 258.612 810.362C259.576 810.827 260.64 811.047 261.709 811.001H277.735C278.816 811.032 279.89 810.809 280.869 810.349C281.848 809.889 282.705 809.205 283.371 808.352C284.79 806.475 285.52 804.166 285.437 801.814V714.681C285.442 712.854 286.17 711.103 287.462 709.811C288.754 708.519 290.505 707.791 292.332 707.786H338.491C353.502 707.786 366.672 704.724 377.662 698.656ZM381.419 626.777C381.419 642.445 377.662 654.563 370.335 662.754C363.008 670.945 351.811 675.078 337.12 675.078H292.426C290.511 675.073 288.676 674.309 287.324 672.953C285.971 671.597 285.212 669.76 285.212 667.845V585.333C285.217 583.422 285.978 581.589 287.33 580.238C288.682 578.886 290.514 578.124 292.426 578.119H337.045C352.074 578.119 363.44 582.384 370.56 590.819C377.681 599.254 381.344 611.334 381.344 626.777H381.419Z" fill="#6536FC"/>
<path d="M691.215 811H706.639C707.732 811.073 708.827 810.888 709.835 810.461C710.844 810.033 711.737 809.375 712.444 808.539C713.54 807.321 714.297 805.838 714.643 804.236L729.428 756.518C729.931 754.883 730.945 753.454 732.322 752.439C733.698 751.424 735.364 750.879 737.074 750.882H823.756C825.469 750.878 827.138 751.423 828.517 752.437C829.897 753.452 830.915 754.882 831.421 756.518L846.207 804.236C846.737 805.781 847.518 807.228 848.518 808.52C849.184 809.36 850.046 810.026 851.028 810.458C852.01 810.89 853.083 811.076 854.154 811H869.578C870.487 810.982 871.38 810.749 872.183 810.322C872.986 809.894 873.677 809.283 874.199 808.539C875.472 806.941 876.137 804.944 876.078 802.903C876.054 801.454 875.846 800.015 875.458 798.619L800.855 554.033C800.163 551.74 798.991 549.621 797.417 547.815C796.532 546.963 795.477 546.307 794.322 545.889C793.166 545.472 791.936 545.302 790.71 545.391H770.045C768.82 545.302 767.589 545.472 766.434 545.889C765.278 546.307 764.223 546.963 763.338 547.815C761.746 549.615 760.572 551.745 759.9 554.052L684.959 798.751C684.783 800.14 684.689 801.539 684.677 802.94C684.618 804.982 685.284 806.979 686.556 808.576C687.087 809.319 687.785 809.926 688.595 810.347C689.405 810.768 690.303 810.992 691.215 811V811ZM741.414 713.571L777.597 594.688C777.793 594.096 778.171 593.58 778.677 593.214C779.183 592.849 779.791 592.652 780.415 592.652C781.039 592.652 781.648 592.849 782.154 593.214C782.659 593.58 783.037 594.096 783.233 594.688L819.398 713.571C819.528 714.016 819.553 714.485 819.471 714.941C819.39 715.398 819.204 715.829 818.928 716.201C818.655 716.578 818.296 716.883 817.881 717.092C817.466 717.301 817.007 717.408 816.542 717.404H744.251C743.796 717.4 743.347 717.291 742.941 717.087C742.535 716.882 742.18 716.587 741.906 716.224C741.632 715.861 741.445 715.439 741.36 714.993C741.274 714.546 741.293 714.085 741.414 713.646V713.571Z" fill="#6536FC"/>
<path d="M537.107 801.739C538.63 804.373 540.822 806.558 543.462 808.073C546.101 809.587 549.094 810.377 552.136 810.362H552.23C555.288 810.362 558.291 809.549 560.931 808.008C563.572 806.466 565.756 804.251 567.26 801.589L631.642 688.868C634.632 683.632 636.159 677.688 636.063 671.66C635.967 665.631 634.252 659.739 631.098 654.601L566.114 548.831C564.553 546.298 562.369 544.206 559.771 542.756C557.173 541.305 554.248 540.544 551.272 540.544C548.297 540.544 545.371 541.305 542.773 542.756C540.175 544.206 537.992 546.298 536.431 548.831L471.578 654.413C468.386 659.595 466.665 665.549 466.599 671.635C466.532 677.721 468.124 683.711 471.203 688.962L537.107 801.739ZM555.894 594.332L602.861 670.682C603.349 671.504 603.606 672.441 603.606 673.397C603.606 674.352 603.349 675.29 602.861 676.111L556.514 757.233C556.047 758.041 555.376 758.711 554.568 759.177C553.76 759.643 552.844 759.889 551.911 759.889C550.978 759.889 550.062 759.643 549.254 759.177C548.446 758.711 547.775 758.041 547.308 757.233L499.853 676.093C499.36 675.266 499.099 674.322 499.099 673.359C499.099 672.397 499.36 671.452 499.853 670.626L546.82 594.295C547.305 593.54 547.973 592.92 548.761 592.492C549.549 592.064 550.433 591.842 551.33 591.845C552.226 591.849 553.108 592.079 553.893 592.514C554.677 592.948 555.34 593.574 555.819 594.332H555.894Z" fill="#6536FC"/>
<path d="M546.744 594.331L499.777 670.662C499.284 671.489 499.023 672.433 499.023 673.396C499.023 674.358 499.284 675.303 499.777 676.129L547.232 757.27C547.699 758.077 548.37 758.748 549.178 759.214C549.986 759.68 550.902 759.925 551.835 759.925C552.768 759.925 553.684 759.68 554.492 759.214C555.3 758.748 555.971 758.077 556.438 757.27L602.785 676.148C603.273 675.327 603.53 674.389 603.53 673.433C603.53 672.478 603.273 671.54 602.785 670.719L555.818 594.369C555.343 593.594 554.678 592.953 553.886 592.508C553.093 592.062 552.2 591.826 551.291 591.822C550.383 591.819 549.488 592.047 548.692 592.486C547.896 592.925 547.225 593.56 546.744 594.331V594.331Z" fill="white"/>
<path d="M1061.17 554.523C1050.16 548.474 1037.01 545.393 1022.07 545.393H962.554C955.995 545.403 949.708 548.012 945.07 552.65C940.432 557.288 937.822 563.576 937.812 570.135V801.814C937.716 804.133 938.376 806.421 939.691 808.333C940.325 809.198 941.162 809.894 942.128 810.359C943.095 810.825 944.161 811.045 945.233 811.001H961.258C962.339 811.031 963.412 810.807 964.391 810.347C965.37 809.887 966.227 809.204 966.894 808.352C968.314 806.475 969.043 804.166 968.96 801.814V714.681C968.965 712.854 969.693 711.103 970.985 709.811C972.277 708.519 974.028 707.791 975.855 707.786H1022.01C1037.04 707.786 1050.19 704.724 1061.11 698.656C1072.25 692.472 1081.24 683.033 1086.87 671.603C1092.92 659.767 1095.98 644.681 1095.98 626.777C1095.98 608.873 1092.92 593.75 1086.87 581.689C1081.28 570.219 1072.31 560.738 1061.17 554.523ZM968.716 585.333C968.721 583.422 969.483 581.59 970.835 580.238C972.186 578.886 974.018 578.124 975.93 578.119H1020.55C1035.58 578.119 1046.85 582.384 1054.06 590.819C1061.28 599.254 1064.75 611.334 1064.75 626.777C1064.75 642.22 1061 654.563 1053.69 662.754C1046.38 670.945 1035.18 675.078 1020.47 675.078H975.93C974.015 675.073 972.18 674.309 970.828 672.953C969.476 671.597 968.716 669.76 968.716 667.845V585.333Z" fill="#6536FC"/>
</g>
</svg>
