<svg width="420" height="248" viewBox="0 0 420 248" fill="none" xmlns="http://www.w3.org/2000/svg">
<path d="M199.841 161.616C199.841 161.616 184.171 161.616 181.037 187.664C181.037 187.664 173.601 258.961 206.109 277.957C242.74 261.697 199.841 161.616 199.841 161.616V161.616Z" fill="#483EDB"/>
<path d="M238.822 215.279L225.31 208.228C224.719 206.275 222.959 201.369 215.715 192.956C206.121 181.987 198.877 156.325 192.018 143.596C186.341 133.218 169.297 135.569 161.86 136.738C158.341 137.329 155.001 138.69 152.458 141.246C150.108 143.404 148.348 146.332 150.699 149.466C155.207 155.734 171.069 150.057 177.145 156.903C180.664 160.82 182.231 171.391 183.014 179.624C183.99 190.593 186.739 201.562 191.44 211.349C193.598 215.857 196.141 220.16 198.877 223.101C198.877 223.101 203.963 231.128 219.838 231.527C235.713 231.925 241.583 229.96 241.583 229.96L238.847 215.266L238.822 215.279Z" fill="#E87C8A"/>
<path d="M542.815 223.114C535.173 171.211 539.874 146.73 541.056 141.824C541.248 141.233 541.248 140.848 541.248 140.848C512.452 165.727 485.235 171.995 461.525 156.119C441.553 142.8 420.784 146.91 420.784 146.91C423.918 119.488 421.76 99.7085 417.059 85.6057C407.85 58.1837 376.909 44.6718 350.078 55.0497C292.69 77.18 300.525 151.804 300.525 151.804C297.006 152.395 282.313 160.422 264.883 171.198C235.701 189.219 214.547 173.151 199.661 161.604C199.661 161.604 242.56 261.697 205.929 277.945C205.929 277.945 212.582 282.453 228.252 281.863C244.513 281.272 265.898 268.697 275.3 258.307C265.114 271.819 240.197 298.508 240.98 322.398L314.628 335.91C314.628 335.91 374.366 341.395 385.142 341.986C395.918 342.576 484.452 333.958 484.452 333.958C484.452 333.958 489.153 311.044 467.215 269.712C445.278 228.38 446.061 226.235 446.061 226.235C453.305 218.4 489.936 257.767 508.342 267.952C519.902 274.22 533.799 278.138 540.465 265.602C544.575 258.165 545.949 245.039 542.815 223.101V223.114Z" fill="#7E76F2"/>
<path d="M352.234 84.6294C344.797 85.4129 337.939 88.9322 333.43 94.8147C329.32 100.299 325.994 108.519 327.163 120.862C329.513 144.56 357.911 147.694 367.506 148.092C369.856 148.092 372.207 147.899 374.557 147.501C383.959 145.549 406.68 137.714 401.196 110.086C396.109 83.2551 365.746 83.2551 352.234 84.6294V84.6294Z" fill="#E87C8A"/>
<path d="M351.053 103.639C351.053 103.639 349.101 112.257 349.101 118.127" stroke="white" stroke-width="4.57" stroke-linecap="round" stroke-linejoin="round"/>
<path d="M376.716 105C376.716 105 374.764 113.618 374.764 119.488" stroke="white" stroke-width="4.57" stroke-linecap="round" stroke-linejoin="round"/>
<path d="M131.099 119.886C133.696 119.886 135.8 117.781 135.8 115.185C135.8 112.589 133.696 110.484 131.099 110.484C128.503 110.484 126.398 112.589 126.398 115.185C126.398 117.781 128.503 119.886 131.099 119.886Z" fill="#7E76F2"/>
<path d="M204.156 74.4567C205.454 74.4567 206.507 73.4043 206.507 72.1062C206.507 70.8081 205.454 69.7557 204.156 69.7557C202.858 69.7557 201.806 70.8081 201.806 72.1062C201.806 73.4043 202.858 74.4567 204.156 74.4567Z" fill="#7E76F2"/>
<path d="M134.618 51.1449C136.675 51.1449 138.343 49.4772 138.343 47.4201C138.343 45.3629 136.675 43.6953 134.618 43.6953C132.561 43.6953 130.894 45.3629 130.894 47.4201C130.894 49.4772 132.561 51.1449 134.618 51.1449Z" fill="#7E76F2"/>
<path d="M120.914 92.8618C119.154 93.6453 117.78 95.0196 116.997 96.7792C116.804 97.3701 115.828 97.3701 115.622 96.7792C114.839 95.0196 113.464 93.6453 111.705 92.8618C111.114 92.6692 111.114 91.693 111.705 91.4875C113.464 90.704 114.839 89.3297 115.622 87.5701C115.815 86.9792 116.791 86.9792 116.997 87.5701C117.78 89.3297 119.154 90.704 120.914 91.4875C121.505 91.6802 121.505 92.6563 120.914 92.8618Z" fill="#E87C8A"/>
<path d="M216.692 104.615C214.933 105.398 213.558 106.773 212.775 108.532C212.582 109.123 211.606 109.123 211.401 108.532C210.617 106.773 209.243 105.398 207.483 104.615C206.892 104.422 206.892 103.446 207.483 103.24C209.243 102.457 210.617 101.083 211.401 99.323C211.593 98.7322 212.569 98.7322 212.775 99.323C213.558 101.083 214.933 102.457 216.692 103.24C217.283 103.433 217.283 104.217 216.692 104.615Z" fill="#E87C8A"/>
<path d="M166.934 29.2071V17.6475" stroke="#E87C8A" stroke-width="6.1" stroke-miterlimit="10" stroke-linecap="round"/>
<path d="M216.885 52.3139L225.118 44.0938" stroke="#E87C8A" stroke-width="6.1" stroke-miterlimit="10" stroke-linecap="round"/>
<path d="M211.593 129.095L221.393 135.363" stroke="#E87C8A" stroke-width="6.1" stroke-miterlimit="10" stroke-linecap="round"/>
<path d="M114.839 124.792L105.438 131.843" stroke="#E87C8A" stroke-width="6.1" stroke-miterlimit="10" stroke-linecap="round"/>
<path d="M114.646 56.2305L104.461 50.7461" stroke="#E87C8A" stroke-width="6.1" stroke-miterlimit="10" stroke-linecap="round"/>
<path d="M408.439 236.047C406.68 236.831 405.305 238.205 404.522 239.965C404.329 240.556 403.353 240.556 403.148 239.965C402.364 238.205 400.99 236.831 399.23 236.047C398.639 235.855 398.639 234.879 399.23 234.673C400.99 233.89 402.364 232.515 403.148 230.756C403.34 230.165 404.316 230.165 404.522 230.756C405.305 232.515 406.68 233.89 408.439 234.673C409.03 234.866 409.03 235.842 408.439 236.047Z" fill="white"/>
<path d="M289.157 189.423C287.397 190.207 286.023 191.581 285.24 193.341C285.047 193.931 284.071 193.931 283.865 193.341C283.082 191.581 281.707 190.207 279.948 189.423C279.357 189.231 279.357 188.254 279.948 188.049C281.707 187.265 283.082 185.891 283.865 184.131C284.058 183.541 285.034 183.541 285.24 184.131C286.023 185.891 287.397 187.265 289.157 188.049C289.748 188.242 289.748 189.025 289.157 189.423Z" fill="white"/>
<path d="M244.704 179.045C244.704 179.045 296.8 308.32 484.836 320.856" stroke="white" stroke-width="1.14" stroke-miterlimit="10" stroke-linecap="round"/>
<path d="M315.013 335.935C315.013 335.935 430.969 261.119 451.339 150.84" stroke="white" stroke-width="1.14" stroke-miterlimit="10" stroke-linecap="round"/>
<path d="M284.456 159.65C289.748 163.17 383.561 228.405 446.24 226.247" stroke="white" stroke-width="1.14" stroke-miterlimit="10" stroke-linecap="round"/>
<path d="M308.167 181.781C311.735 181.781 314.627 178.889 314.627 175.321C314.627 171.753 311.735 168.86 308.167 168.86C304.599 168.86 301.706 171.753 301.706 175.321C301.706 178.889 304.599 181.781 308.167 181.781Z" fill="white"/>
<path d="M47.8443 143.854H32.1104V159.587H47.8443V143.854Z" fill="#7E76F2"/>
<path d="M86.8394 177.414H71.1055V193.148H86.8394V177.414Z" fill="#7E76F2"/>
<path d="M52.5828 193.148H36.8489V208.882H52.5828V193.148Z" fill="#7E76F2"/>
<path d="M257.908 14.4365H242.174V30.1705H257.908V14.4365Z" fill="#7E76F2"/>
<path d="M289.517 41.8076H273.783V57.5416H289.517V41.8076Z" fill="#7E76F2"/>
<path d="M377.268 8.45117H361.534V24.1851H377.268V8.45117Z" fill="#7E76F2"/>
<path d="M250.047 22.2968L281.656 49.6675L369.394 16.3115" stroke="#7E76F2" stroke-miterlimit="10"/>
<path d="M38.6863 152.228L78.9652 185.275L44.7101 201.009" stroke="#7E76F2" stroke-miterlimit="10"/>
<path d="M262.057 195.781H255.596C254.171 195.781 253.015 196.937 253.015 198.363V204.823C253.015 206.249 254.171 207.405 255.596 207.405H262.057C263.483 207.405 264.639 206.249 264.639 204.823V198.363C264.639 196.937 263.483 195.781 262.057 195.781Z" fill="white"/>
<path d="M362.484 195.781H356.023C354.597 195.781 353.441 196.937 353.441 198.363V204.823C353.441 206.249 354.597 207.405 356.023 207.405H362.484C363.909 207.405 365.065 206.249 365.065 204.823V198.363C365.065 196.937 363.909 195.781 362.484 195.781Z" fill="white"/>
<path d="M288.823 231.192H282.363C280.937 231.192 279.781 232.348 279.781 233.774V240.235C279.781 241.66 280.937 242.816 282.363 242.816H288.823C290.249 242.816 291.405 241.66 291.405 240.235V233.774C291.405 232.348 290.249 231.192 288.823 231.192Z" fill="white"/>
<path d="M188.858 102.751C189.413 91.0181 181.369 81.1043 170.89 80.6083C160.412 80.1124 151.467 89.222 150.912 100.955C150.356 112.689 158.401 122.602 168.879 123.098C179.358 123.594 188.302 114.485 188.858 102.751Z" fill="#7E76F2"/>
<path d="M178.952 121.524C176.977 122.661 172.308 123.12 169.495 123.06C168.398 123.04 167.64 122.102 167.66 121.005V119.828C167.68 118.711 168.458 117.773 169.535 117.513L177.217 115.778C178.094 115.578 179.052 115.877 179.491 116.675C180.349 118.232 180.868 120.367 178.932 121.504L178.952 121.524Z" fill="#7E76F2"/>
<path d="M162.891 82.1788C164.926 81.0016 170.991 79.8245 174.283 79.625C175.381 79.5651 176.139 80.443 176.119 81.5403V82.7175C176.099 83.8348 175.321 84.7925 174.224 85.0319L166.382 86.7478C165.505 86.9473 164.587 86.648 163.908 86.0295C162.532 84.7726 160.896 83.3161 162.871 82.1788H162.891Z" fill="#141414"/>
<path d="M150.98 99.7154C150.98 99.5159 156.287 99.4561 156.287 99.4561L156.607 100.833L157.046 102.549L157.205 104.504L157.664 106.739L158.183 108.375L159.021 109.991L160.797 113.762L154.671 114.779C154.671 114.779 150.102 109.013 150.98 99.7154V99.7154Z" fill="#483EDB"/>
<path d="M154.531 89.5003L159.479 89.1612L160.218 88.9417L162.532 87.8443C162.532 87.8443 165.385 84.8116 165.485 84.6321C165.585 84.4525 168.398 82.0383 168.398 82.0383L171.55 79.9434C171.55 79.9434 159.898 80.4222 154.531 89.5003V89.5003Z" fill="#483EDB"/>
<path d="M194.221 101.731C194.778 89.9644 186.735 80.0238 176.256 79.5278C165.778 79.0318 156.832 88.1682 156.275 99.9345C155.718 111.701 163.761 121.641 174.24 122.137C184.718 122.633 193.664 113.497 194.221 101.731Z" fill="#F0EDF9"/>
<path d="M191.809 101.616C192.284 91.567 185.255 83.0696 176.108 82.6366C166.962 82.2037 159.161 89.9992 158.685 100.048C158.21 110.098 165.239 118.595 174.386 119.028C183.532 119.461 191.333 111.665 191.809 101.616Z" fill="#7E76F2"/>
<path d="M160.776 100.095C160.956 96.3842 162.373 92.733 164.767 89.8799" stroke="white" stroke-width="0.8" stroke-linecap="round" stroke-linejoin="round"/>
<path d="M188.929 106.54C187.014 111.767 182.345 116.117 176.698 116.795" stroke="white" stroke-width="0.8" stroke-linecap="round" stroke-linejoin="round"/>
<path d="M150.696 76.9297C150.922 72.1638 147.652 68.1368 143.392 67.9351C139.132 67.7335 135.496 71.4336 135.271 76.1996C135.045 80.9655 138.315 84.9926 142.575 85.1942C146.835 85.3958 150.471 81.6957 150.696 76.9297Z" fill="#7E76F2"/>
<path d="M146.67 84.5331C145.872 84.992 143.977 85.1915 142.84 85.1516C142.401 85.1516 142.082 84.7725 142.101 84.3137V83.8348C142.101 83.3759 142.421 82.9968 142.86 82.8971L145.972 82.1987C146.331 82.1189 146.71 82.2387 146.89 82.5579C147.249 83.1963 147.449 84.0543 146.67 84.5132V84.5331Z" fill="#7E76F2"/>
<path d="M140.147 68.5713C140.985 68.0924 143.439 67.6136 144.775 67.5338C145.214 67.5138 145.534 67.8729 145.514 68.3119V68.7907C145.514 69.2496 145.194 69.6287 144.736 69.7285L141.563 70.4268C141.204 70.5066 140.825 70.3869 140.566 70.1275C140.007 69.6088 139.349 69.0302 140.147 68.5513V68.5713Z" fill="#141414"/>
<path d="M135.319 75.6941L137.473 75.5944L137.613 76.153L137.793 76.8513L137.852 77.6494L138.032 78.5672L138.252 79.2256L138.591 79.884L139.309 81.4203L136.815 81.8393C136.815 81.8393 134.959 79.5049 135.319 75.7141V75.6941Z" fill="#483EDB"/>
<path d="M136.755 71.5246L138.77 71.3849L139.069 71.2852L140.007 70.8462C140.007 70.8462 141.164 69.6092 141.204 69.5494C141.244 69.4895 142.381 68.4919 142.381 68.4919L143.658 67.6539C143.658 67.6539 138.93 67.8535 136.755 71.5446V71.5246Z" fill="#483EDB"/>
<path d="M152.875 76.514C153.101 71.7371 149.831 67.7011 145.572 67.4995C141.312 67.2979 137.676 71.0069 137.449 75.7839C137.223 80.5609 140.493 84.5968 144.753 84.7984C149.012 85 152.649 81.291 152.875 76.514Z" fill="#F0EDF9"/>
<path d="M151.878 76.4673C152.072 72.3837 149.221 68.9311 145.512 68.7555C141.803 68.5799 138.639 71.7479 138.446 75.8315C138.252 79.915 141.103 83.3677 144.812 83.5432C148.521 83.7188 151.685 80.5508 151.878 76.4673Z" fill="#7E76F2"/>
<path d="M139.289 75.8343C139.369 74.318 139.928 72.8415 140.905 71.6843" stroke="white" stroke-width="0.33" stroke-linecap="round" stroke-linejoin="round"/>
<path d="M150.721 78.4675C149.943 80.6024 148.047 82.3582 145.753 82.6375" stroke="white" stroke-width="0.33" stroke-linecap="round" stroke-linejoin="round"/>
<path d="M172.296 71.6068C179.175 71.2812 184.457 64.7712 184.092 57.0665C183.727 49.3617 177.855 43.3797 170.976 43.7053C164.096 44.031 158.815 50.5409 159.18 58.2456C159.545 65.9504 165.417 71.9324 172.296 71.6068Z" fill="#7E76F2"/>
<path d="M165.326 67.4135C165.605 66.8947 166.244 66.6952 166.822 66.8149L171.87 67.9522C172.589 68.1118 173.087 68.7303 173.107 69.4685V70.2466C173.107 70.9649 172.628 71.5834 171.91 71.6034C170.075 71.6433 167.002 71.344 165.705 70.5858C164.428 69.8476 164.767 68.451 165.326 67.4135Z" fill="#7E76F2"/>
<path d="M175.561 47.2831C175.122 47.6821 174.524 47.8816 173.945 47.742L168.798 46.6247C168.079 46.4651 167.561 45.8266 167.561 45.1083V44.3302C167.561 43.6119 168.039 43.0333 168.758 43.0732C170.912 43.2129 174.883 43.991 176.24 44.7492C177.556 45.5074 176.479 46.4651 175.561 47.2831Z" fill="#141414"/>
<path d="M184.041 56.2609C184.041 56.1213 180.569 56.1013 180.569 56.1013L180.35 57.0191L180.07 58.1364L179.971 59.4133L179.671 60.8898L179.332 61.9672L178.773 63.0246L177.616 65.4987L181.627 66.1571C181.627 66.1571 184.619 62.3862 184.041 56.2609V56.2609Z" fill="#483EDB"/>
<path d="M181.706 49.5573L178.454 49.3378L177.975 49.1782L176.459 48.46C176.459 48.46 174.583 46.4847 174.524 46.3451C174.464 46.2054 172.608 44.6491 172.608 44.6491L170.533 43.2725C170.533 43.2725 178.175 43.5917 181.706 49.5374V49.5573Z" fill="#483EDB"/>
<path d="M168.778 70.956C175.657 70.6304 180.937 64.1026 180.571 56.3759C180.206 48.6491 174.332 42.6492 167.453 42.9749C160.574 43.3005 155.294 49.8283 155.659 57.555C156.025 65.2818 161.898 71.2817 168.778 70.956Z" fill="#F0EDF9"/>
<path d="M168.681 68.9035C174.68 68.6196 179.29 63.0447 178.978 56.4516C178.666 49.8585 173.55 44.7439 167.551 45.0279C161.552 45.3118 156.942 50.8867 157.255 57.4798C157.567 64.0729 162.682 69.1875 168.681 68.9035Z" fill="#7E76F2"/>
<path d="M177.616 56.5203C177.496 54.0861 176.578 51.6919 175.002 49.8164" stroke="white" stroke-width="0.53" stroke-linecap="round" stroke-linejoin="round"/>
<path d="M159.14 60.751C160.397 64.1827 163.469 67.0358 167.18 67.4748" stroke="white" stroke-width="0.53" stroke-linecap="round" stroke-linejoin="round"/>
</svg>
