<svg width="420" height="248" viewBox="0 0 420 248" fill="none" xmlns="http://www.w3.org/2000/svg">
<path d="M352.62 122.019L113.066 3.35254L149.684 192.815L249.868 247.71L352.62 122.019Z" fill="#E87C8A"/>
<path d="M297.957 120.965L287.99 140.231C287.99 140.231 258.346 137.83 257.948 137.932C257.55 138.035 269.739 107.595 269.739 107.595L297.957 120.953V120.965Z" fill="#F0EDF9"/>
<path d="M299.652 88.4311C299.652 88.4311 300.756 83.0238 304.789 82.844C308.823 82.6642 308.399 85.7467 308.399 85.7467C308.399 85.7467 310.261 80.1724 315.142 82.0091C318.237 83.1779 317.351 86.5559 316.285 88.8807C315.373 90.8587 314.718 92.9394 314.448 95.0972C313.922 99.2844 313.267 105.95 313.703 110.305C313.896 112.141 313.703 114.004 312.958 115.699C311.648 118.705 308.489 122.108 300.859 121.209C294.129 120.413 277.034 120.695 277.034 120.695C277.034 120.695 268.595 120.169 268.736 111.974C268.736 111.897 268.736 111.807 268.736 111.73C268.929 106.182 273.54 101.815 279.089 101.686C285.035 101.545 295.889 101.288 295.889 101.288L299.639 88.4183L299.652 88.4311Z" fill="#F0EDF9"/>
<path d="M272.897 112.694C272.897 112.694 274.027 100.864 288.862 108.661C288.926 108.686 293.126 110.562 293.126 110.562C294.591 111.037 296.158 111.589 296.158 109.906C296.158 106.58 296.543 102.624 296.543 102.624C298.29 87.7891 304.044 90.7047 304.044 90.7047C304.044 90.7047 307.807 92.0918 306.214 97.8588C304.622 103.639 305.071 113.233 305.071 113.233" stroke="#483EDB" stroke-miterlimit="10"/>
<path d="M310.427 111.897C310.427 111.897 308.745 107.351 311.172 95.791C311.802 92.7984 314.139 87.1085 310.402 86.0424C306.664 84.9764 304.57 87.6993 304.044 90.7176" stroke="#483EDB" stroke-miterlimit="10"/>
<path d="M304.494 121.312C304.353 121.312 297.391 122.057 296.158 124.459C295.272 126.18 295.76 121.659 295.76 121.659L296.762 119.411C296.762 119.411 300.602 119.565 300.808 119.411C301.013 119.257 303.646 119.706 303.646 119.706L304.494 121.299V121.312Z" fill="#F0EDF9"/>
<path d="M154.115 233.929L151.623 256.29L264.612 256.547L262.75 241.044L154.115 233.929Z" fill="#483EDB"/>
<path d="M193.252 91.681C195.384 103.369 212.916 108.687 218.233 100.71C223.551 92.7342 218.233 77.3214 218.233 77.3214C218.233 77.3214 215.099 63.7581 197.58 64.3875C182.27 64.9397 179.791 74.1489 180.099 79.8131C180.408 85.4774 186.868 108.314 187.189 117.125C187.51 125.949 188.294 143.109 201.523 142.158C214.753 141.208 215.69 121.685 214.599 119.167C213.507 116.65 210.822 113.811 205.145 112.244C199.481 110.665 193.252 91.6553 193.252 91.6553V91.681Z" fill="#F0EDF9"/>
<path d="M210.091 114.338C205.236 110.472 205.916 103.266 205.916 103.266L192.867 90.3965C192.867 90.3965 191.017 92.4644 190.465 93.6717C189.913 94.8791 185.995 100.325 185.995 100.325L185.07 103.741C185.07 103.741 186.869 109.817 188.063 113.079C189.258 116.341 198.865 119.835 198.865 119.835L205.081 117.767L210.104 114.338H210.091Z" fill="#F0EDF9"/>
<path d="M187.189 117.15C187.189 117.15 143.056 114.826 131.715 142.222C120.361 169.618 128.877 263.842 224.809 253.066C224.809 253.066 271.844 249.457 288.849 215.279C305.855 181.101 270.79 110.215 210.09 114.338L187.201 117.15H187.189Z" fill="#7E76F2"/>
<path d="M177.684 148.285C177.684 148.285 171.506 199.378 210.077 199.378C248.647 199.378 254.35 150.725 255.699 132.435C255.981 128.685 259.295 125.898 263.046 126.257L296.273 129.417C300.691 129.841 304.159 133.386 304.48 137.817C306.253 163.094 305.328 242.547 224.796 251.602C128.864 262.391 120.348 168.155 131.702 140.758C143.057 113.362 189.783 115.687 189.783 115.687L177.684 148.285V148.285Z" fill="#7E76F2"/>
<path d="M177.222 150.673C177.222 150.673 171.044 201.767 209.614 201.767C255.403 201.767 255.558 127.978 255.558 127.978" stroke="#483EDB" stroke-width="1.37" stroke-linecap="round" stroke-linejoin="round"/>
<path d="M207.636 69.0496C205.723 70.1798 210.539 77.2698 205.684 77.7321C202.075 78.0661 197.515 73.7376 196.115 72.4404C193.713 70.2312 188.345 70.6551 191.016 76.4991C193.688 82.3432 194.523 82.7542 193.688 86.5817C192.853 90.4092 185.057 103.741 185.057 103.741L178.879 79.1835C178.609 78.1303 178.557 77.0386 178.763 75.9725C179.469 72.389 182.513 65.0294 195.691 64.3872C213.442 63.5138 216.345 73.1211 216.345 73.1211C216.345 73.1211 216.653 74.9964 214.623 74.8037C212.594 74.611 209.589 67.9065 207.636 69.0624V69.0496Z" fill="#7E76F2"/>
<path d="M192.622 84.0132C192.622 84.0132 188.961 81.5728 187.381 83.9104C185.802 86.248 187.073 90.7178 190.374 90.3838C193.675 90.0499 196.411 89.3177 196.077 87.7379C195.743 86.1581 192.622 84.0132 192.622 84.0132Z" fill="#F0EDF9"/>
<path d="M210.089 114.338C210.089 114.338 216.216 118.975 211.913 123.868C208.869 127.336 204.9 127.965 202.152 127.965C199.403 127.965 187.933 129.712 187.099 115.635L190.104 109.932C190.104 109.932 203.295 110.138 203.757 109.932C204.22 109.727 206.262 113.272 206.262 113.272L210.102 114.338H210.089Z" fill="#F0EDF9"/>
<path d="M270.901 58.5562C270.473 49.5301 276.662 41.9036 284.723 41.5221C292.783 41.1405 299.664 48.1483 300.092 57.1745C300.519 66.2006 294.331 73.827 286.27 74.2086C278.209 74.5901 271.328 67.5823 270.901 58.5562Z" fill="#7E76F2"/>
<path d="M278.52 72.9977C280.04 73.8725 283.632 74.2256 285.796 74.1795C286.64 74.1642 287.223 73.4428 287.208 72.5986V71.693C287.192 70.8335 286.594 70.1122 285.765 69.9126L279.856 68.5773C279.18 68.4238 278.444 68.654 278.106 69.268C277.446 70.4652 277.047 72.1075 278.536 72.9823L278.52 72.9977Z" fill="#7E76F2"/>
<path d="M290.876 42.7305C289.31 41.8249 284.644 40.9194 282.112 40.7659C281.267 40.7198 280.684 41.3952 280.7 42.2394V43.1449C280.715 44.0044 281.313 44.7412 282.158 44.9253L288.19 46.2453C288.865 46.3988 289.571 46.1686 290.093 45.6928C291.152 44.7258 292.41 43.6054 290.891 42.7305H290.876Z" fill="#141414"/>
<path d="M300.038 56.2209C300.038 56.0674 295.955 56.0214 295.955 56.0214L295.71 57.0804L295.372 58.4004L295.249 59.9045L294.896 61.6236L294.497 62.8822L293.852 64.1254L292.486 67.0263L297.198 67.809C297.198 67.809 300.713 63.3733 300.038 56.2209V56.2209Z" fill="#483EDB"/>
<path d="M297.306 48.3627L293.499 48.1018L292.931 47.9329L291.151 47.0888C291.151 47.0888 288.956 44.7558 288.879 44.6177C288.803 44.4795 286.638 42.6223 286.638 42.6223L284.213 41.0107C284.213 41.0107 293.177 41.3791 297.306 48.3627V48.3627Z" fill="#483EDB"/>
<path d="M266.776 57.7711C266.347 48.7195 272.535 41.0725 280.595 40.691C288.656 40.3094 295.538 47.3378 295.967 56.3893C296.395 65.4409 290.208 73.0879 282.147 73.4694C274.086 73.851 267.204 66.8226 266.776 57.7711Z" fill="#F0EDF9"/>
<path d="M268.631 57.6832C268.265 49.9525 273.673 43.4156 280.709 43.0826C287.745 42.7495 293.746 48.7464 294.112 56.4771C294.478 64.2077 289.07 70.7446 282.034 71.0777C274.998 71.4107 268.997 65.4138 268.631 57.6832Z" fill="#7E76F2"/>
<path d="M292.504 56.513C292.366 53.6582 291.276 50.8494 289.434 48.6545" stroke="white" stroke-width="0.615421" stroke-linecap="round" stroke-linejoin="round"/>
<path d="M270.845 61.4707C272.319 65.492 275.911 68.838 280.254 69.3598" stroke="white" stroke-width="0.615421" stroke-linecap="round" stroke-linejoin="round"/>
<path d="M305.637 25.0455C307.731 25.9959 309.413 27.6913 310.376 29.7849C310.71 30.5042 311.738 30.5042 312.059 29.7849C313.009 27.6913 314.705 26.0088 316.798 25.0455C317.518 24.7115 317.518 23.684 316.798 23.3629C314.705 22.4124 313.022 20.717 312.059 18.6234C311.725 17.9042 310.698 17.9042 310.376 18.6234C309.426 20.717 307.731 22.3996 305.637 23.3629C304.918 23.6968 304.918 24.7244 305.637 25.0455Z" fill="#E87C8A"/>
<path d="M240.852 46.2646C242.779 47.138 244.333 48.6922 245.206 50.6188C245.514 51.2867 246.452 51.2867 246.76 50.6188C247.634 48.6922 249.188 47.138 251.114 46.2646C251.782 45.9564 251.782 45.0188 251.114 44.7105C249.188 43.8371 247.634 42.283 246.76 40.3564C246.452 39.6885 245.514 39.6885 245.206 40.3564C244.333 42.283 242.779 43.8371 240.852 44.7105C240.184 45.0188 240.184 45.9564 240.852 46.2646Z" fill="#E87C8A"/>
<path d="M326.739 59.4169L322.501 53.6885L318.545 59.4169L322.642 64.6188L326.739 59.4169Z" fill="#7E76F2"/>
<path d="M281.527 21.6034L276.3 14.5264L271.406 21.6034L276.467 28.0126L281.527 21.6034Z" fill="#7E76F2"/>
<path d="M271.408 90.7174L266.18 83.6532L261.287 90.7174L266.347 97.1394L271.408 90.7174Z" fill="#7E76F2"/>
<path d="M437.751 35.5783L424.92 22.7471L412.089 35.5783L399.257 22.7471L386.426 35.5783L373.595 22.7471L360.764 35.5783L347.933 22.7471L335.101 35.5783" stroke="#E87C8A" stroke-width="4.36" stroke-linecap="round" stroke-linejoin="round"/>
</svg>
